<svg version="1.2" baseProfile="tiny-ps" xmlns="http://www.w3.org/2000/svg" viewBox="0 0 1232 1280" width="250" height="260">
	<title>plane-svg</title>
	<style>
		tspan { white-space:pre }
		.shp0 { fill: #000000 } 
	</style>
	<g >
		<path class="shp0" d="M1208.48 511.02C1196.19 544.72 1179.73 568.52 1165.21 573.37C1138.17 582.46 1023.19 596.89 886.64 608.39C870.94 609.74 857.8 610.91 857.69 610.98C857.46 611.11 856.34 620.26 855.29 631.26C852.8 656.9 852.43 659.7 845.46 719.71C837.35 790.03 829.83 854.62 822.68 916.04C819.31 944.92 816.73 969.1 816.94 969.73C817.09 970.26 820.38 971.63 824.24 972.67C842.13 977.51 870.64 989.74 884.89 998.71C911.33 1015.4 919.63 1032.87 911.57 1055.19C900.7 1085.42 863.23 1107.78 792.47 1126.26C756.05 1135.8 661.99 1155.6 630.72 1160.36C576.85 1168.46 531.6 1171.08 499.19 1167.91C487.15 1166.78 462.91 1160.51 456.39 1156.82C445.51 1150.7 437.35 1141.65 435.45 1133.33C433.95 1126.75 437.18 1116.24 443.96 1106.12C456.58 1087.26 483.68 1062.96 524.17 1034.08C532.16 1028.43 538.69 1023.54 538.74 1023.36C538.81 1023.09 535.16 1011.98 530.56 998.69C506.07 926.98 483.87 848.57 462.77 758.99C452.53 715.53 444.89 676.73 439.97 643.2C439.35 639.07 438.76 635.54 438.72 635.34C438.68 635.13 424.76 635.61 407.97 636.38C271.48 642.3 179.73 641.42 119.05 633.69C99.12 631.1 72.54 624.21 64.63 619.56C56.97 615.08 51.97 609.68 45.42 598.95C22.14 560.93 3.71 484.31 4.34 428.46C4.5 409.32 5.56 401.12 9.73 385.66C14.06 369.67 16.69 364.21 24.14 355.91C50.6 326.51 158 309.07 377.03 298.84L403.11 297.6L402.44 289.03C400.62 263.28 397.59 214.92 397.82 214.79C398.02 214.75 423.18 214.41 453.74 214.09C524.36 213.22 528.31 213.23 528.91 212.81C529.22 212.7 529.38 209.27 529.36 205.41C529.37 201.46 530.26 192.83 531.44 186.3L533.54 174.24L514.39 179.09C381.06 212.57 270.82 228.77 217.1 222.74C196.6 220.48 185.28 217.03 175.59 210.07C166.15 203.28 162.13 191.39 165.89 181.03C175.04 155.74 233.33 136.3 324.04 128.51C398.56 122.14 483.33 124.22 535.24 133.72C542.03 134.98 548.61 135.98 549.87 135.94C551.61 135.93 553.43 134.2 557.99 128.01C589.03 87.03 638.12 68.77 696.54 76.65C710.3 78.54 720.01 81.16 730.06 85.71C754.64 96.79 770.62 114.03 778.7 138L781.05 145L792.75 143.44C858.56 134.33 961.34 130.77 1027.5 135.34C1063.88 137.75 1082.7 140.52 1104.51 146.51C1123.56 151.66 1130.01 154.56 1137.16 160.93C1153.27 175.51 1140.87 196.07 1110.53 205.22C1061.41 220 950.33 212.54 807.77 184.91C795.96 182.59 786.13 180.8 785.92 180.84C785.69 180.97 785.25 185.48 784.85 190.86C784.57 196.19 784.04 202.79 783.72 205.41L783.11 210.16L826.65 209.59C850.64 209.32 870.82 209.18 871.57 209.29C872.55 209.55 872.88 217.64 872.58 242.63C872.42 260.72 872.39 277.58 872.41 280L872.47 284.45L891.03 284.26C1044.32 282.88 1140.64 285.77 1181.57 293.07C1200.31 296.5 1205.05 299.32 1212.26 311.87C1229.5 341.89 1232.72 405.63 1220.04 469.31C1218.09 479.39 1211.96 501.35 1208.48 511.02Z" />
	</g>
</svg>